<?xml version="1.0" encoding="utf-8"?>
<!-- Generator: Adobe Illustrator 21.1.0, SVG Export Plug-In . SVG Version: 6.00 Build 0)  -->
<svg version="1.1" id="Layer_1" xmlns="http://www.w3.org/2000/svg" xmlns:xlink="http://www.w3.org/1999/xlink" x="0px" y="0px"
	 viewBox="0 0 159 23.2" style="enable-background:new 0 0 159 23.2;" xml:space="preserve">
<style type="text/css">
	.st0{fill:#02C146;}
</style>
<path class="st0" d="M154.6,4.6c-3.1-0.1-8.2-0.1-11.1-0.1c-2,0-4.2,0.8-4.3,2.3c-0.1,0.8,0.7,1.4,1.9,1.6c2,0.3,7.6,1.7,9.7,2.3
	c0.9,0.3,2.4,0.7,3.6,1.6c1.6,1.2,2.3,2.9,2,4.9c-0.6,3.6-3.6,5.8-8,5.8c-4.4,0-16.5-0.2-17.9-0.2l-1.4,0c0.2-0.9,1.1-3.8,4.8-4.3
	c0.1,0,0.3,0,0.4-0.1c3.4,0.1,8.3,0.1,11.3,0.1c1.6,0,4-1.4,4.2-2.7c0.1-1-1.6-1.6-2.4-1.8c-0.9-0.3-8.4-2-9.5-2.3
	c-0.9-0.2-2.3-0.7-3.5-1.5c-1.6-1.2-2.2-2.8-1.9-4.7c0.6-3.5,3.4-5.5,7.6-5.5c4.1,0,15.8,0.2,17.3,0.2l1.5,0
	C158.9,0.8,158.2,3.9,154.6,4.6z M129.8,11.4l-0.2,1c-0.2,1-0.9,3.5-3.2,5.8c-2.8,2.8-6.9,4.4-11.9,4.6c-0.6,0-1.1,0-1.6,0
	c-0.1,0-0.2,0-0.3,0c-0.6,0-1.1,0-1.9-0.1c-4.8-0.4-8.2-2.1-10.1-5.1c-1.6-2.6-1.2-5.3-1.1-6.1l0.2-1c0.1-0.8,0.8-3.4,3.2-5.8
	c2.8-2.8,6.9-4.4,11.9-4.6c1.5-0.1,2.4-0.1,3.8,0.1c4.8,0.4,8.2,2.1,10.1,5.1C130.3,7.8,130,10.4,129.8,11.4z M106.2,16.5
	c1.2,1.5,3.7,2.2,7.5,2.3c0.1,0,0.1,0,0.2,0c8.4,0,9.9-6.2,10.2-8.1c0.3-1.8-0.1-3.2-0.9-4.2c-1.6-1.9-4.7-2.2-6.5-2.2
	c-0.2,0-0.3,0-0.5,0c-3.5,0-6.1,0.7-7.8,2.2c-1.4,1.1-2.3,2.8-2.7,5C105.1,13.7,105.2,15.3,106.2,16.5z M54.3,1L54.3,1
	c-1.9-0.9-4.3-0.9-6.9-0.9c-0.1,0-5,0.1-8.8,0.1c-0.1,0-0.3,0-0.4,0.1c-3.9,0.6-4.7,3.8-4.8,4.5l1.4,0c2.5,0,11.8-0.1,11.8-0.1
	c0.4,0,0.9,0,1.3,0c1.5,0,3-0.1,3.7,0.3c0.2,0.1,0.7,0.4,0.5,1.9l0,0c0,0,0,0,0,0c0,0,0,0,0,0l0,0c-0.1,0.4-0.8,3.7-1.3,5.7
	c0,0,0,0,0,0l-0.6,2.3l0,0c-0.2,1.1-1,4.5-8,4.5h-2.7c0,0,0,0,0,0c-1.8,0-3-0.6-3.2-1.7c-0.1-1.1,1-2.6,3.6-3.3
	c1.3-0.4,3.6-0.9,5.8-1.4c0.1,0,0.3-0.1,0.5-0.1c2.8-0.6,4.1-4.3,4.5-5.7l-2.2,0.6c-3.2,0.8-7.2,1.8-10,2.6c-3.1,0.8-7,1.8-8.1,6.1
	c-0.5,1.8-0.2,3.4,0.7,4.6c1.1,1.5,3.2,2.2,6.1,2.2c5.2,0,6.5,0,6.9,0l0,0c2,0,4.2-0.2,6.1-0.9c3-1.1,4.9-3.5,5.5-7L57,8.2
	C57.6,4.6,56.7,2.2,54.3,1z M29.8,0.2l-1.5,0C26.9,0.2,15.1,0,11,0C6.9,0,4,2.1,3.4,5.6c-0.3,1.9,0.3,3.6,1.9,4.7
	c1.2,0.9,2.6,1.3,3.5,1.5c1.1,0.3,8.5,2,9.5,2.3c0.6,0.2,2.7,0.8,2.5,1.9c-0.1,0.5-0.6,1.2-1.3,1.7c-0.9,0.6-2,0.9-3,0.9
	c-2.9,0-7.9-0.1-11.3-0.1c-0.1,0-0.2,0-0.4,0.1C1.1,19.1,0.2,22,0,22.9l1.4,0c1.6,0,13.3,0,17.7,0c4.4,0,7.3-2.1,8-5.6
	c0.4-2-0.3-3.7-1.9-4.9c-1.1-0.9-2.4-1.3-3.6-1.6c-2.1-0.6-7.7-2-9.7-2.3c-1.3-0.2-2-0.9-2-1.7c0.1-1.5,2.2-2.4,4.2-2.4
	c2.8,0,7.7,0.2,11,0.3c0.1,0,0.3,0,0.4,0C29,3.8,29.7,0.8,29.8,0.2z M67.4,9C67.4,9,67.4,8.9,67.4,9l0.1-0.8
	c0.1-0.7,0.1-1.1,0.1-1.1l1.7-0.7c0,0,0.1,0,0.1-0.1c3-1.2,4.4-1.7,6-1c1.2,0.5,1.2,1.7,0.9,3.6l0,0.2c-0.1,0.4-2.3,12.5-2.3,12.7
	l-0.1,0.8h5.6l2-13c0.1-0.3,0.2-1.2,0.2-2.4c0.4-0.1,0.9-0.3,1.5-0.5c2-0.7,5.3-1.9,6.8-1.5c0.8,0.2,1.3,0.6,1.2,1.9
	c-0.4,5.7-2.1,13.4-2.6,15.6h5.7l0.1-0.4c0.6-3.5,2.3-14.9,2.2-16.2c-0.1-1.7-1.4-3.9-4.7-5c-2.6-0.9-5.9,0-8.1,0.6
	c0,0-3.3,0.9-4.5,1.2C78.8,2,78,1.5,77.1,1.1c-2.6-0.9-5-0.2-7.1,0.3c0,0-4.5,1.2-6.3,1.6L63,3.3l-3.8,19.3H65L67.4,9z"/>
</svg>
