<?xml version="1.0" encoding="utf-8"?>
<!-- Generator: Adobe Illustrator 22.1.0, SVG Export Plug-In . SVG Version: 6.00 Build 0)  -->
<svg version="1.1" id="Layer_1" xmlns="http://www.w3.org/2000/svg" xmlns:xlink="http://www.w3.org/1999/xlink" x="0px" y="0px"
	 viewBox="0 0 159 23.2" style="enable-background:new 0 0 159 23.2;" xml:space="preserve">
<style type="text/css">
	.st0{fill:#0000FF;}
</style>
<g>
	<g>
		<polygon class="st0" points="0.1,8.6 15.4,17.4 15.4,14.7 0.1,5.9 		"/>
		<polygon class="st0" points="7.4,3 7.4,5.8 15.4,10.4 15.4,7.6 		"/>
		<polygon class="st0" points="0.1,15.6 8,20.2 8,17.4 0.1,12.9 		"/>
	</g>
</g>
<g>
	<g>
		<rect x="139.4" y="2.5" class="st0" width="17.3" height="2.3"/>
		<rect x="29.3" y="2.5" class="st0" width="17.3" height="2.3"/>
		<path class="st0" d="M126.8,2.5h-10.5l-5.2,9.1l5.2,9l0,0h10.5l5.2-9.1L126.8,2.5L126.8,2.5z M125.5,18.3h-7.8l-3.9-6.7l3.9-6.7
			h7.8l3.9,6.7L125.5,18.3z"/>
		<polygon class="st0" points="155.7,10.4 155.6,10.4 139.4,10.4 139.4,12.7 154.3,12.7 155.8,15.4 154.3,18 139.4,18 139.4,20.4 
			155.6,20.4 158.5,15.4 		"/>
		<polygon class="st0" points="65.5,2.6 55.9,8.1 55.9,8.1 55.9,20.6 58.2,20.6 58.2,9.5 65.5,5.3 72.8,9.5 72.8,20.6 75.1,20.6 
			75.1,8.1 65.5,2.6 		"/>
		<polygon class="st0" points="94.2,8.4 85.1,3.2 84.5,3.2 84.5,20.7 86.9,20.7 86.9,6.9 94.1,11.1 94.2,11.1 101.4,6.9 101.4,20.6 
			103.8,20.6 103.8,3.2 103.1,3.2 		"/>
		<polygon class="st0" points="45.6,10.4 29.3,10.4 29.3,12.7 44.2,12.7 45.7,15.4 44.2,18 29.3,18 29.3,20.4 45.6,20.4 48.4,15.4 
			45.6,10.4 		"/>
	</g>
</g>
</svg>
